# xmcd CD database file
#
# Track frame offsets:
#	150
#	13733
#	33622
#	47577
#	61399
#	75888
#	92527
#	107628
#	122177
#	138860
#	155270
#	170405
#	184947
#	197788
#	217543
#	231578
#
# Disc length: 3302 seconds
#
# Revision: 0
# Processed by: cddbd v1.5.2PL0 Copyright (c) Steve Scherf et al.
# Submitted via: CDex 1.70beta2
#
DISCID=cc0ce410
DTITLE=Elliott Pacetti - Going Green
DYEAR=2011
DGENRE=Country
TTITLE0=The Boulevard Of Broken Hearts
TTITLE1=Going Green
TTITLE2=Let Our Love Come Naturally
TTITLE3=Bedroom Eyes
TTITLE4=Breaking Hearts And Taking Names
TTITLE5=Bullet Blue
TTITLE6=Caribbean Lullaby
TTITLE7=Stargazing
TTITLE8=Janie Loved To Ride
TTITLE9=Mama's Bible
TTITLE10=April Showers
TTITLE11=She Chose Me
TTITLE12=From Beer Thirty To Wine O'clock
TTITLE13=Sad Old Songs
TTITLE14=Paycheck From The  Poorhouse
TTITLE15=You Could Hear A Teardrop
EXTD=YEAR: 2011
EXTT0=
EXTT1=
EXTT2=
EXTT3=
EXTT4=
EXTT5=
EXTT6=
EXTT7=
EXTT8=
EXTT9=
EXTT10=
EXTT11=
EXTT12=
EXTT13=
EXTT14=
EXTT15=
PLAYORDER=
